<?xml version="1.0" standalone="no"?>
<!DOCTYPE svg PUBLIC "-//W3C//DTD SVG 20010904//EN"
 "http://www.w3.org/TR/2001/REC-SVG-20010904/DTD/svg10.dtd">
<svg version="1.0" xmlns="http://www.w3.org/2000/svg"
 width="100.000000pt" height="60.000000pt" viewBox="0 0 500.000000 500.000000"
 preserveAspectRatio="xMidYMid meet">

<g transform="translate(0.000000,500.000000) scale(0.100000,-0.100000)"
fill="#ffffff" stroke="none">
<path d="M2715 3395 c-89 -19 -165 -51 -235 -96 -62 -40 -170 -135 -170 -149
0 -4 41 8 91 26 125 48 217 65 331 65 211 -1 383 -79 528 -239 121 -135 170
-272 170 -482 0 -146 -21 -248 -70 -338 -16 -30 -28 -58 -25 -61 3 -3 38 29
78 70 86 88 136 181 168 314 64 268 -11 524 -204 701 -183 167 -436 239 -662
189z"/>
<path d="M3320 3365 c0 -2 19 -17 43 -33 133 -93 239 -248 293 -429 35 -120
44 -315 20 -429 -48 -221 -212 -420 -441 -534 -95 -48 -229 -90 -284 -90 -14
0 -32 -4 -40 -9 -9 -6 13 -17 70 -34 120 -36 182 -48 284 -52 362 -14 663 189
778 526 103 301 25 616 -207 836 -89 85 -162 133 -267 178 -98 42 -249 85
-249 70z"/>
<path d="M1280 996 l0 -327 63 3 62 3 3 97 c2 66 7 100 16 107 19 16 35 -2 92
-106 26 -49 52 -91 57 -95 15 -9 147 -6 147 4 0 5 -38 74 -85 154 l-85 145 85
92 85 92 -77 3 -77 3 -51 -58 c-27 -32 -62 -71 -77 -88 l-27 -30 -1 141 c0
166 -4 174 -78 182 l-52 5 0 -327z"/>
<path d="M3369 1318 c-4 -14 -5 -68 -2 -85 5 -21 11 -23 69 -23 l64 0 0 30 c0
46 -39 80 -90 80 -22 0 -40 -1 -41 -2z"/>
<path d="M3590 995 l0 -325 65 0 65 0 0 305 c0 292 -1 306 -20 325 -14 14 -33
20 -65 20 l-45 0 0 -325z"/>
<path d="M2433 1164 c-58 -21 -99 -70 -112 -136 -7 -30 -10 -120 -9 -203 l3
-150 65 0 65 0 5 182 c6 208 9 218 81 218 33 0 46 -6 65 -28 23 -27 24 -34 24
-180 0 -84 4 -157 8 -164 10 -16 51 -30 87 -29 l30 1 3 164 c4 239 -17 293
-127 330 -46 15 -137 13 -188 -5z"/>
<path d="M2939 1153 c-88 -45 -93 -62 -97 -291 l-4 -193 64 3 63 3 5 176 c5
194 11 211 70 224 32 7 84 -15 94 -40 3 -9 6 -83 6 -165 0 -176 7 -193 81
-194 l44 -1 3 175 c2 104 -1 190 -8 212 -31 106 -197 153 -321 91z"/>
<path d="M1792 983 c4 -223 10 -241 98 -286 49 -26 63 -28 130 -24 102 5 155
32 182 94 17 39 20 69 21 224 l2 179 -46 0 c-81 0 -84 -5 -87 -193 -4 -184 -7
-193 -74 -203 -27 -5 -41 -1 -64 19 l-29 25 -3 176 -3 176 -65 0 -66 0 4 -187z"/>
<path d="M3370 923 l5 -248 50 -1 c28 0 56 1 63 4 9 3 12 58 12 228 0 211 -1
225 -20 244 -14 14 -33 20 -67 20 l-48 0 5 -247z"/>
<path d="M1771 439 c-13 -14 -18 -30 -15 -47 7 -38 10 -40 70 -58 63 -18 78
-39 46 -65 -28 -22 -73 -12 -87 19 -12 27 -35 29 -35 2 0 -35 35 -60 85 -60
54 0 85 25 85 69 0 35 -10 44 -77 65 -68 22 -77 49 -23 68 22 8 60 -9 60 -27
0 -8 9 -15 20 -15 22 0 18 22 -8 53 -22 25 -95 23 -121 -4z"/>
<path d="M1952 443 c5 -25 28 -28 28 -4 0 12 -6 21 -16 21 -9 0 -14 -7 -12
-17z"/>
<path d="M2630 430 c-22 -22 -27 -60 -7 -60 7 0 17 10 22 23 7 16 18 22 40 22
25 0 31 -4 33 -27 3 -22 -4 -31 -40 -54 -52 -32 -68 -51 -68 -81 0 -23 2 -24
73 -21 86 4 92 21 10 28 l-58 5 28 20 c76 54 87 67 87 99 0 19 -8 40 -18 49
-25 23 -78 21 -102 -3z"/>
<path d="M2812 441 c-34 -21 -47 -134 -21 -183 14 -27 54 -40 84 -28 63 24 73
179 15 210 -23 12 -60 13 -78 1z m66 -34 c11 -12 16 -58 13 -104 -1 -22 -25
-53 -41 -53 -5 0 -16 7 -24 16 -19 19 -22 124 -4 142 16 16 43 15 56 -1z"/>
<path d="M2984 442 c-32 -21 -48 -113 -30 -170 9 -28 54 -51 86 -43 66 17 81
179 20 211 -22 12 -60 13 -76 2z m63 -34 c35 -44 14 -157 -29 -158 -4 0 -14 7
-22 16 -18 18 -22 104 -6 135 12 22 43 25 57 7z"/>
<path d="M3154 442 c-40 -26 -50 -150 -16 -192 25 -30 80 -30 104 0 36 45 35
143 -3 181 -19 19 -64 25 -85 11z m64 -34 c18 -18 15 -123 -4 -142 -19 -20
-23 -20 -46 1 -20 18 -25 101 -8 134 12 21 40 25 58 7z"/>
<path d="M1957 393 c-4 -3 -7 -42 -7 -85 0 -63 3 -78 15 -78 12 0 15 16 15 85
0 78 -5 96 -23 78z"/>
<path d="M2027 393 c-4 -3 -7 -42 -7 -85 0 -63 3 -78 15 -78 11 0 15 13 15 53
0 63 16 90 51 85 22 -3 24 -7 27 -70 2 -52 6 -68 17 -68 22 0 21 133 -1 154
-17 18 -69 21 -79 6 -5 -8 -11 -8 -19 -1 -7 6 -16 8 -19 4z"/>
<path d="M2211 374 c-28 -35 -28 -97 -1 -124 37 -37 120 -19 120 26 0 18 -14
18 -30 -2 -8 -8 -25 -14 -39 -12 -55 6 -51 108 4 108 14 0 28 -7 31 -15 7 -17
30 -20 39 -5 11 18 -34 50 -69 50 -25 0 -40 -7 -55 -26z"/>
<path d="M2379 381 c-19 -15 -24 -28 -23 -65 1 -29 8 -53 19 -66 24 -26 79
-26 105 0 24 24 26 40 5 40 -8 0 -15 -4 -15 -10 0 -5 -9 -14 -20 -20 -24 -13
-60 3 -60 25 0 16 4 17 65 19 36 1 40 4 43 28 7 58 -70 89 -119 49z m81 -15
c0 -2 3 -11 6 -20 5 -13 -2 -16 -35 -16 -39 0 -53 14 -34 33 7 8 63 10 63 3z"/>
</g>
</svg>
